<svg width="31" height="31" viewBox="0 0 31 31" fill="none" xmlns="http://www.w3.org/2000/svg">
<path d="M15.3936 30.7452C23.6191 30.7452 30.2872 24.0771 30.2872 15.8516C30.2872 7.62611 23.6191 0.958008 15.3936 0.958008C7.1681 0.958008 0.5 7.62611 0.5 15.8516C0.5 24.0771 7.1681 30.7452 15.3936 30.7452Z" fill="url(#paint0_linear_713_50057)"/>
<path fill-rule="evenodd" clip-rule="evenodd" d="M13.3434 7.28809C12.8947 7.28809 12.4644 7.46631 12.1472 7.78355C11.83 8.10078 11.6517 8.53105 11.6517 8.9797V10.0734C11.6517 10.279 11.485 10.4457 11.2794 10.4457H8.42257C7.97392 10.4457 7.54366 10.6239 7.22642 10.9412C6.90918 11.2584 6.73096 11.6887 6.73096 12.1373V15.418C6.73096 15.8667 6.90918 16.2969 7.22642 16.6142C7.36472 16.7525 7.52451 16.8643 7.69793 16.9466C7.84839 17.0179 7.96106 17.1604 7.96106 17.3269V21.5691C7.96106 22.1265 8.18249 22.661 8.57663 23.0552C8.97078 23.4493 9.50535 23.6708 10.0628 23.6708H20.725C21.2824 23.6708 21.817 23.4493 22.2111 23.0552C22.6053 22.661 22.8267 22.1265 22.8267 21.5691V17.327C22.8267 17.1605 22.9394 17.018 23.0899 16.9467C23.2634 16.8645 23.4233 16.7525 23.5617 16.6142C23.8789 16.2969 24.0571 15.8667 24.0571 15.418V12.1373C24.0571 11.6887 23.8789 11.2584 23.5617 10.9412C23.2444 10.6239 22.8142 10.4457 22.3655 10.4457H19.5082C19.3025 10.4457 19.1358 10.279 19.1358 10.0734V8.9797C19.1358 8.53105 18.9576 8.10078 18.6404 7.78355C18.3231 7.46631 17.8929 7.28809 17.4442 7.28809H13.3434ZM18.255 12.1886C18.2582 12.1886 18.2613 12.1886 18.2644 12.1886C18.2675 12.1886 18.2706 12.1886 18.2737 12.1886H21.9419C22.1476 12.1886 22.3143 12.3553 22.3143 12.5609V15.0293C22.3143 15.2157 22.1632 15.3668 21.9768 15.3668L21.9553 15.3665L21.9337 15.3668H8.85405L8.8325 15.3665L8.81095 15.3668C8.62476 15.3668 8.47383 15.2158 8.47383 15.0296V12.5609C8.47383 12.3553 8.64053 12.1886 8.84617 12.1886H12.5138C12.5169 12.1886 12.5201 12.1886 12.5232 12.1886C12.5263 12.1886 12.5294 12.1886 12.5325 12.1886H18.255ZM17.0206 10.4457C17.2263 10.4457 17.393 10.279 17.393 10.0734V9.4033C17.393 9.19766 17.2263 9.03096 17.0206 9.03096H13.767C13.5613 9.03096 13.3946 9.19766 13.3946 9.4033V10.0734C13.3946 10.279 13.5613 10.4457 13.767 10.4457H17.0206ZM9.70393 21.5691V17.482C9.70393 17.2763 9.87063 17.1096 10.0763 17.1096H20.7115C20.9171 17.1096 21.0838 17.2763 21.0838 17.482V21.5691C21.0838 21.6642 21.046 21.7555 20.9788 21.8228C20.9115 21.8901 20.8202 21.9279 20.725 21.9279H10.0628C9.96759 21.9279 9.87632 21.8901 9.80903 21.8228C9.74174 21.7555 9.70393 21.6642 9.70393 21.5691Z" fill="url(#paint1_linear_713_50057)"/>
<defs>
<linearGradient id="paint0_linear_713_50057" x1="0.5" y1="0.958008" x2="31.7132" y2="29.1675" gradientUnits="userSpaceOnUse">
<stop stop-color="#FF9C27"/>
<stop offset="1" stop-color="#FD48CE"/>
</linearGradient>
<linearGradient id="paint1_linear_713_50057" x1="15.394" y1="7.28809" x2="15.394" y2="23.6708" gradientUnits="userSpaceOnUse">
<stop offset="0.166667" stop-color="white"/>
<stop offset="1" stop-color="white" stop-opacity="0.5"/>
</linearGradient>
</defs>
</svg>
