<svg width="99" height="14" viewBox="0 0 99 14" fill="none" xmlns="http://www.w3.org/2000/svg">
  <path d="M4.06215 13H0.612787L5.47406 0.221275H8.70896L13.606 13H10.0851L9.263 10.337H4.88428L4.06215 13ZM7.0647 3.17021L5.61704 7.88851H8.54811L7.10045 3.17021H7.0647ZM18.3494 13.3038C15.4541 13.3038 13.6311 11.2843 13.6311 8.42468C13.6311 5.58298 15.4541 3.54553 18.2779 3.54553C20.923 3.54553 22.5315 5.1183 22.7639 7.26298H19.8864C19.7971 6.51234 19.4754 5.69021 18.3315 5.69021C17.152 5.69021 16.5622 6.70894 16.5622 8.42468C16.5622 10.1404 17.1341 11.1591 18.3315 11.1591C19.4575 11.1591 19.7971 10.3906 19.8864 9.55064H22.7639C22.6209 11.7311 20.9766 13.3038 18.3494 13.3038ZM28.337 13.3038C25.4417 13.3038 23.6187 11.2843 23.6187 8.42468C23.6187 5.58298 25.4417 3.54553 28.2655 3.54553C30.9106 3.54553 32.5191 5.1183 32.7514 7.26298H29.874C29.7846 6.51234 29.4629 5.69021 28.3191 5.69021C27.1395 5.69021 26.5497 6.70894 26.5497 8.42468C26.5497 10.1404 27.1217 11.1591 28.3191 11.1591C29.4451 11.1591 29.7846 10.3906 29.874 9.55064H32.7514C32.6085 11.7311 30.9642 13.3038 28.337 13.3038ZM38.4675 13.3038C35.4471 13.3038 33.6062 11.3379 33.6062 8.44255C33.6062 5.56511 35.4471 3.54553 38.5211 3.54553C41.5416 3.54553 43.3824 5.51149 43.3824 8.38894C43.3824 11.2843 41.5416 13.3038 38.4675 13.3038ZM38.5033 11.1591C39.7722 11.1591 40.4871 10.194 40.4871 8.42468C40.4871 6.65532 39.7722 5.69021 38.5033 5.69021C37.2165 5.69021 36.5016 6.65532 36.5016 8.42468C36.5016 10.194 37.2165 11.1591 38.5033 11.1591ZM50.689 9.13957V3.84936H53.5486V13H50.689V11.6774H50.6532C50.1707 12.5174 49.2771 13.286 47.6507 13.286C45.8813 13.286 44.6839 12.1243 44.6839 10.0332V3.84936H47.5435V9.1217C47.5435 10.4979 48.026 10.9626 48.9732 10.9626C50.0635 10.9626 50.689 10.4085 50.689 9.13957ZM61.1989 3.5634C62.9683 3.5634 64.1657 4.72511 64.1657 6.81617V13H61.3061V7.72766C61.3061 6.35149 60.8236 5.88681 59.8764 5.88681C58.7861 5.88681 58.1606 6.44085 58.1606 7.70979V13H55.301V3.84936H58.1606V5.17191H58.1964C58.6789 4.33191 59.5725 3.5634 61.1989 3.5634ZM70.299 11.034C70.5671 11.034 70.7279 11.0162 71.0675 10.9626V12.9821C70.4599 13.1251 69.9416 13.1787 69.3696 13.1787C67.3679 13.1787 66.5101 12.2672 66.5101 10.0332V5.99404H65.2411V3.84936H66.5101V1.29362H69.3696V3.84936H70.9603V5.99404H69.3696V9.9617C69.3696 10.9447 69.745 11.034 70.299 11.034ZM87.9509 13H84.1977L80.8913 8.01362L79.5687 9.55064V13H76.3517V0.221275H79.5687V5.67234L84.1441 0.221275H87.5934L82.7858 5.81532L87.9509 13ZM91.4437 2.75915H88.5841V0.221275H91.4437V2.75915ZM91.4437 13H88.5841V3.84936H91.4437V13ZM97.7177 11.034C97.9858 11.034 98.1466 11.0162 98.4862 10.9626V12.9821C97.8785 13.1251 97.3602 13.1787 96.7883 13.1787C94.7866 13.1787 93.9287 12.2672 93.9287 10.0332V5.99404H92.6598V3.84936H93.9287V1.29362H96.7883V3.84936H98.379V5.99404H96.7883V9.9617C96.7883 10.9447 97.1636 11.034 97.7177 11.034Z" fill="black" />
</svg>