<svg width="263" height="40" viewBox="0 0 263 40" fill="none" xmlns="http://www.w3.org/2000/svg">
<path d="M20 40C31.0457 40 40 31.0457 40 20C40 8.9543 31.0457 0 20 0C8.9543 0 0 8.9543 0 20C0 31.0457 8.9543 40 20 40Z" fill="url(#paint0_linear_1286_10062)"/>
<path fill-rule="evenodd" clip-rule="evenodd" d="M17.2466 8.5C16.6441 8.5 16.0663 8.73933 15.6403 9.16533C15.2143 9.59134 14.975 10.1691 14.975 10.7716V12.2403C14.975 12.5164 14.7511 12.7403 14.475 12.7403H10.6383C10.0358 12.7403 9.45804 12.9796 9.03203 13.4056C8.60603 13.8316 8.3667 14.4094 8.3667 15.0119V19.4174C8.3667 20.0199 8.60603 20.5977 9.03203 21.0237C9.2178 21.2094 9.43242 21.3597 9.66537 21.4701C9.86744 21.5659 10.0188 21.7572 10.0188 21.9808V27.6777C10.0188 28.4262 10.3161 29.1441 10.8454 29.6734C11.3747 30.2027 12.0925 30.5 12.841 30.5H27.1589C27.9075 30.5 28.6253 30.2027 29.1546 29.6734C29.6839 29.1441 29.9812 28.4262 29.9812 27.6777V21.9808C29.9812 21.7572 30.1325 21.5659 30.3346 21.4701C30.5676 21.3597 30.7822 21.2094 30.968 21.0237C31.394 20.5977 31.6333 20.0199 31.6333 19.4174V15.0119C31.6333 14.4094 31.394 13.8316 30.968 13.4056C30.5419 12.9796 29.9642 12.7403 29.3617 12.7403H25.525C25.2489 12.7403 25.025 12.5165 25.025 12.2403V10.7716C25.025 10.1691 24.7857 9.59134 24.3597 9.16533C23.9337 8.73933 23.3559 8.5 22.7534 8.5H17.2466ZM22.1846 12.7403C22.4607 12.7403 22.6846 12.5164 22.6846 12.2403V11.3404C22.6846 11.0643 22.4607 10.8404 22.1846 10.8404H17.8154C17.5392 10.8404 17.3154 11.0643 17.3154 11.3404V12.2403C17.3154 12.5165 17.5392 12.7403 17.8154 12.7403H22.1846ZM11.2071 15.0807C10.931 15.0807 10.7071 15.3046 10.7071 15.5807V18.8682C10.7071 19.1335 10.9222 19.3486 11.1875 19.3486V19.3486L11.189 19.3486L11.1905 19.3486H28.8095L28.811 19.3486L28.8125 19.3486V19.3486C29.0778 19.3486 29.2929 19.1335 29.2929 18.8682V15.5807C29.2929 15.3046 29.069 15.0807 28.7929 15.0807H11.2071ZM12.3592 27.6777V22.189C12.3592 21.9129 12.5831 21.689 12.8592 21.689H27.1408C27.4169 21.689 27.6408 21.9129 27.6408 22.189V27.6777C27.6408 27.8055 27.59 27.9281 27.4997 28.0184C27.4093 28.1088 27.2867 28.1596 27.1589 28.1596H12.841C12.7133 28.1596 12.5907 28.1088 12.5003 28.0184C12.41 27.9281 12.3592 27.8055 12.3592 27.6777Z" fill="url(#paint1_linear_1286_10062)"/>
<path d="M60.512 29H55.88L62.408 11.84H66.752L73.328 29H68.6L67.496 25.424H61.616L60.512 29ZM64.544 15.8L62.6 22.136H66.536L64.592 15.8H64.544ZM79.6978 29.408C75.8097 29.408 73.3617 26.696 73.3617 22.856C73.3617 19.04 75.8097 16.304 79.6017 16.304C83.1537 16.304 85.3138 18.416 85.6258 21.296H81.7617C81.6418 20.288 81.2097 19.184 79.6738 19.184C78.0898 19.184 77.2977 20.552 77.2977 22.856C77.2977 25.16 78.0658 26.528 79.6738 26.528C81.1858 26.528 81.6418 25.496 81.7617 24.368H85.6258C85.4338 27.296 83.2258 29.408 79.6978 29.408ZM93.1096 29.408C89.2216 29.408 86.7736 26.696 86.7736 22.856C86.7736 19.04 89.2216 16.304 93.0136 16.304C96.5656 16.304 98.7256 18.416 99.0376 21.296H95.1736C95.0536 20.288 94.6216 19.184 93.0856 19.184C91.5016 19.184 90.7096 20.552 90.7096 22.856C90.7096 25.16 91.4776 26.528 93.0856 26.528C94.5976 26.528 95.0536 25.496 95.1736 24.368H99.0376C98.8456 27.296 96.6376 29.408 93.1096 29.408ZM106.714 29.408C102.658 29.408 100.186 26.768 100.186 22.88C100.186 19.016 102.658 16.304 106.786 16.304C110.842 16.304 113.314 18.944 113.314 22.808C113.314 26.696 110.842 29.408 106.714 29.408ZM106.762 26.528C108.466 26.528 109.426 25.232 109.426 22.856C109.426 20.48 108.466 19.184 106.762 19.184C105.034 19.184 104.074 20.48 104.074 22.856C104.074 25.232 105.034 26.528 106.762 26.528ZM123.125 23.816V16.712H126.965V29H123.125V27.224H123.077C122.429 28.352 121.229 29.384 119.045 29.384C116.669 29.384 115.061 27.824 115.061 25.016V16.712H118.901V23.792C118.901 25.64 119.549 26.264 120.821 26.264C122.285 26.264 123.125 25.52 123.125 23.816ZM137.238 16.328C139.614 16.328 141.222 17.888 141.222 20.696V29H137.382V21.92C137.382 20.072 136.734 19.448 135.462 19.448C133.998 19.448 133.158 20.192 133.158 21.896V29H129.318V16.712H133.158V18.488H133.206C133.854 17.36 135.054 16.328 137.238 16.328ZM149.459 26.36C149.819 26.36 150.035 26.336 150.491 26.264V28.976C149.675 29.168 148.979 29.24 148.211 29.24C145.523 29.24 144.371 28.016 144.371 25.016V19.592H142.667V16.712H144.371V13.28H148.211V16.712H150.347V19.592H148.211V24.92C148.211 26.24 148.715 26.36 149.459 26.36ZM173.163 29H168.123L163.683 22.304L161.907 24.368V29H157.587V11.84H161.907V19.16L168.051 11.84H172.683L166.227 19.352L173.163 29ZM177.853 15.248H174.013V11.84H177.853V15.248ZM177.853 29H174.013V16.712H177.853V29ZM186.278 26.36C186.638 26.36 186.854 26.336 187.31 26.264V28.976C186.494 29.168 185.798 29.24 185.03 29.24C182.342 29.24 181.19 28.016 181.19 25.016V19.592H179.486V16.712H181.19V13.28H185.03V16.712H187.166V19.592H185.03V24.92C185.03 26.24 185.534 26.36 186.278 26.36Z" fill="black"/>
<line x1="204.5" y1="3" x2="204.5" y2="37" stroke="#CBD5E1"/>
<path d="M221.136 14.56H225.488C226.544 14.56 227.451 14.784 228.208 15.232C228.976 15.6693 229.563 16.32 229.968 17.184C230.373 18.0373 230.576 19.072 230.576 20.288C230.576 21.504 230.373 22.5387 229.968 23.392C229.573 24.2453 228.997 24.896 228.24 25.344C227.483 25.7813 226.576 26 225.52 26H221.136V14.56ZM225.408 24.48C226.251 24.48 226.917 24.2933 227.408 23.92C227.899 23.5467 228.245 23.0507 228.448 22.432C228.651 21.8027 228.752 21.088 228.752 20.288C228.752 19.0293 228.501 18.016 228 17.248C227.499 16.4693 226.635 16.08 225.408 16.08H222.896V24.48H225.408ZM235.812 26.24C234.97 26.24 234.244 26.0587 233.636 25.696C233.028 25.3227 232.564 24.8053 232.244 24.144C231.935 23.4827 231.78 22.736 231.78 21.904C231.78 21.0507 231.94 20.2987 232.26 19.648C232.591 18.9973 233.06 18.4907 233.668 18.128C234.276 17.7653 234.991 17.584 235.812 17.584C236.623 17.584 237.316 17.7547 237.892 18.096C238.479 18.4373 238.922 18.9227 239.22 19.552C239.53 20.1707 239.684 20.9013 239.684 21.744C239.684 22.0427 239.679 22.24 239.668 22.336H232.564V21.104H238.052C238.052 20.6773 237.956 20.2933 237.764 19.952C237.583 19.6107 237.316 19.344 236.964 19.152C236.623 18.96 236.223 18.864 235.764 18.864C235.316 18.864 234.911 18.9653 234.548 19.168C234.186 19.3707 233.903 19.6587 233.7 20.032C233.498 20.3947 233.396 20.816 233.396 21.296C233.396 21.616 233.396 21.936 233.396 22.256C233.396 22.736 233.487 23.184 233.668 23.6C233.86 24.0053 234.138 24.336 234.5 24.592C234.863 24.8373 235.311 24.96 235.844 24.96C236.282 24.96 236.65 24.88 236.948 24.72C237.258 24.56 237.492 24.3733 237.652 24.16C237.812 23.936 237.924 23.712 237.988 23.488H239.588C239.354 24.32 238.922 24.9867 238.292 25.488C237.663 25.9893 236.836 26.24 235.812 26.24ZM246.08 20.768C246.08 20.16 245.979 19.7067 245.776 19.408C245.584 19.0987 245.211 18.944 244.656 18.944C244.272 18.944 243.936 19.0293 243.648 19.2C243.36 19.3707 243.136 19.6107 242.976 19.92C242.827 20.2293 242.752 20.5867 242.752 20.992H242.176V18.864H242.784C243.04 18.4907 243.366 18.1867 243.76 17.952C244.155 17.7173 244.635 17.6 245.2 17.6C245.766 17.6 246.224 17.7227 246.576 17.968C246.928 18.2027 247.19 18.5547 247.36 19.024H247.392C247.723 18.576 248.102 18.2293 248.528 17.984C248.966 17.728 249.478 17.6 250.064 17.6C250.875 17.6 251.488 17.84 251.904 18.32C252.331 18.7893 252.544 19.4613 252.544 20.336V26H250.976V20.768C250.976 20.16 250.875 19.7067 250.672 19.408C250.48 19.0987 250.107 18.944 249.552 18.944C249.168 18.944 248.832 19.0293 248.544 19.2C248.256 19.3707 248.032 19.6107 247.872 19.92C247.723 20.2293 247.648 20.5867 247.648 20.992V26H246.08V20.768ZM241.184 17.84H242.752V26H241.184V17.84ZM258.055 26.24C257.223 26.24 256.498 26.0587 255.879 25.696C255.271 25.3333 254.802 24.8267 254.471 24.176C254.14 23.5147 253.975 22.7627 253.975 21.92C253.975 21.0773 254.14 20.3253 254.471 19.664C254.802 19.0027 255.271 18.4907 255.879 18.128C256.498 17.7653 257.228 17.584 258.071 17.584C258.903 17.584 259.623 17.7653 260.231 18.128C260.839 18.4907 261.308 19.0027 261.639 19.664C261.97 20.3147 262.135 21.0613 262.135 21.904C262.135 22.7573 261.97 23.5147 261.639 24.176C261.308 24.8267 260.834 25.3333 260.215 25.696C259.607 26.0587 258.887 26.24 258.055 26.24ZM258.071 24.944C258.604 24.944 259.052 24.816 259.415 24.56C259.788 24.2933 260.06 23.9307 260.231 23.472C260.412 23.0133 260.503 22.4907 260.503 21.904C260.503 21.0187 260.295 20.2987 259.879 19.744C259.463 19.1787 258.86 18.896 258.071 18.896C257.527 18.896 257.068 19.024 256.695 19.28C256.332 19.536 256.06 19.8933 255.879 20.352C255.698 20.8107 255.607 21.3333 255.607 21.92C255.607 22.816 255.815 23.5467 256.231 24.112C256.647 24.6667 257.26 24.944 258.071 24.944Z" fill="#374151"/>
<defs>
<linearGradient id="paint0_linear_1286_10062" x1="0" y1="0" x2="41.9148" y2="37.8813" gradientUnits="userSpaceOnUse">
<stop stop-color="#FF9C27"/>
<stop offset="1" stop-color="#FD48CE"/>
</linearGradient>
<linearGradient id="paint1_linear_1286_10062" x1="20" y1="8.5" x2="20" y2="30.5" gradientUnits="userSpaceOnUse">
<stop offset="0.166667" stop-color="white"/>
<stop offset="1" stop-color="white" stop-opacity="0.5"/>
</linearGradient>
</defs>
</svg>
