<svg width="268" height="36" viewBox="0 0 288 40" fill="none" xmlns="http://www.w3.org/2000/svg">
<path d="M4.992 26.224C4.40533 26.224 3.89867 26.112 3.472 25.888C3.056 25.664 2.72533 25.3653 2.48 24.992H2.064V18.8H2.48C2.736 18.4587 3.072 18.176 3.488 17.952C3.91467 17.7173 4.416 17.6 4.992 17.6C5.68533 17.6 6.30933 17.776 6.864 18.128C7.41867 18.4693 7.856 18.9707 8.176 19.632C8.496 20.2827 8.656 21.0453 8.656 21.92C8.656 22.7947 8.496 23.5573 8.176 24.208C7.856 24.8587 7.41867 25.36 6.864 25.712C6.30933 26.0533 5.68533 26.224 4.992 26.224ZM0.88 17.84H2.448V28.832H0.88V17.84ZM4.736 24.928C5.22667 24.928 5.64267 24.7947 5.984 24.528C6.336 24.2507 6.592 23.8827 6.752 23.424C6.92267 22.9653 7.008 22.464 7.008 21.92C7.008 21.3653 6.92267 20.8587 6.752 20.4C6.592 19.9413 6.336 19.5787 5.984 19.312C5.64267 19.0453 5.22667 18.912 4.736 18.912C4.26667 18.912 3.86133 19.0347 3.52 19.28C3.17867 19.5147 2.91733 19.8613 2.736 20.32C2.55467 20.768 2.464 21.3013 2.464 21.92C2.464 22.528 2.55467 23.0613 2.736 23.52C2.91733 23.968 3.17867 24.3147 3.52 24.56C3.86133 24.8053 4.26667 24.928 4.736 24.928ZM13.813 26.24C12.981 26.24 12.2557 26.0587 11.637 25.696C11.029 25.3333 10.5597 24.8267 10.229 24.176C9.89833 23.5147 9.733 22.7627 9.733 21.92C9.733 21.0773 9.89833 20.3253 10.229 19.664C10.5597 19.0027 11.029 18.4907 11.637 18.128C12.2557 17.7653 12.9863 17.584 13.829 17.584C14.661 17.584 15.381 17.7653 15.989 18.128C16.597 18.4907 17.0663 19.0027 17.397 19.664C17.7277 20.3147 17.893 21.0613 17.893 21.904C17.893 22.7573 17.7277 23.5147 17.397 24.176C17.0663 24.8267 16.5917 25.3333 15.973 25.696C15.365 26.0587 14.645 26.24 13.813 26.24ZM13.829 24.944C14.3623 24.944 14.8103 24.816 15.173 24.56C15.5463 24.2933 15.8183 23.9307 15.989 23.472C16.1703 23.0133 16.261 22.4907 16.261 21.904C16.261 21.0187 16.053 20.2987 15.637 19.744C15.221 19.1787 14.6183 18.896 13.829 18.896C13.285 18.896 12.8263 19.024 12.453 19.28C12.0903 19.536 11.8183 19.8933 11.637 20.352C11.4557 20.8107 11.365 21.3333 11.365 21.92C11.365 22.816 11.573 23.5467 11.989 24.112C12.405 24.6667 13.0183 24.944 13.829 24.944ZM18.4484 17.84H20.1444L21.8724 24.16H21.9044L23.6004 17.84H25.1844L26.8804 24.16H26.9124L28.6564 17.84H30.2884L27.7604 26H26.1444L24.3844 19.712H24.3524L22.5924 26H20.9764L18.4484 17.84ZM34.8822 26.24C34.0396 26.24 33.3142 26.0587 32.7062 25.696C32.0982 25.3227 31.6342 24.8053 31.3142 24.144C31.0049 23.4827 30.8502 22.736 30.8502 21.904C30.8502 21.0507 31.0102 20.2987 31.3302 19.648C31.6609 18.9973 32.1302 18.4907 32.7382 18.128C33.3462 17.7653 34.0609 17.584 34.8822 17.584C35.6929 17.584 36.3862 17.7547 36.9622 18.096C37.5489 18.4373 37.9916 18.9227 38.2902 19.552C38.5996 20.1707 38.7542 20.9013 38.7542 21.744C38.7542 22.0427 38.7489 22.24 38.7382 22.336H31.6342V21.104H37.1223C37.1223 20.6773 37.0263 20.2933 36.8342 19.952C36.6529 19.6107 36.3862 19.344 36.0342 19.152C35.6929 18.96 35.2929 18.864 34.8342 18.864C34.3862 18.864 33.9809 18.9653 33.6182 19.168C33.2556 19.3707 32.9729 19.6587 32.7702 20.032C32.5676 20.3947 32.4662 20.816 32.4662 21.296C32.4662 21.616 32.4662 21.936 32.4662 22.256C32.4662 22.736 32.5569 23.184 32.7382 23.6C32.9302 24.0053 33.2076 24.336 33.5702 24.592C33.9329 24.8373 34.3809 24.96 34.9142 24.96C35.3516 24.96 35.7196 24.88 36.0182 24.72C36.3276 24.56 36.5622 24.3733 36.7222 24.16C36.8822 23.936 36.9942 23.712 37.0582 23.488H38.6582C38.4236 24.32 37.9916 24.9867 37.3622 25.488C36.7329 25.9893 35.9062 26.24 34.8822 26.24ZM40.7024 19.392H41.8544C42.0784 18.8373 42.3664 18.4107 42.7184 18.112C43.081 17.8027 43.5237 17.648 44.0464 17.648C44.3237 17.648 44.5744 17.664 44.7984 17.696V19.2C44.6064 19.168 44.4304 19.152 44.2704 19.152C43.801 19.152 43.3797 19.264 43.0064 19.488C42.633 19.712 42.3397 20.0213 42.1264 20.416C41.9237 20.8107 41.8224 21.264 41.8224 21.776L40.7024 19.392ZM40.2544 17.84H41.8224V26H40.2544V17.84ZM49.2491 26.24C48.4065 26.24 47.6811 26.0587 47.0731 25.696C46.4651 25.3227 46.0011 24.8053 45.6811 24.144C45.3718 23.4827 45.2171 22.736 45.2171 21.904C45.2171 21.0507 45.3771 20.2987 45.6971 19.648C46.0278 18.9973 46.4971 18.4907 47.1051 18.128C47.7131 17.7653 48.4278 17.584 49.2491 17.584C50.0598 17.584 50.7531 17.7547 51.3291 18.096C51.9158 18.4373 52.3585 18.9227 52.6571 19.552C52.9665 20.1707 53.1211 20.9013 53.1211 21.744C53.1211 22.0427 53.1158 22.24 53.1051 22.336H46.0011V21.104H51.4891C51.4891 20.6773 51.3931 20.2933 51.2011 19.952C51.0198 19.6107 50.7531 19.344 50.4011 19.152C50.0598 18.96 49.6598 18.864 49.2011 18.864C48.7531 18.864 48.3478 18.9653 47.9851 19.168C47.6225 19.3707 47.3398 19.6587 47.1371 20.032C46.9345 20.3947 46.8331 20.816 46.8331 21.296C46.8331 21.616 46.8331 21.936 46.8331 22.256C46.8331 22.736 46.9238 23.184 47.1051 23.6C47.2971 24.0053 47.5745 24.336 47.9371 24.592C48.2998 24.8373 48.7478 24.96 49.2811 24.96C49.7185 24.96 50.0865 24.88 50.3851 24.72C50.6945 24.56 50.9291 24.3733 51.0891 24.16C51.2491 23.936 51.3611 23.712 51.4251 23.488H53.0251C52.7905 24.32 52.3585 24.9867 51.7291 25.488C51.0998 25.9893 50.2731 26.24 49.2491 26.24ZM57.8692 26.224C57.1759 26.224 56.5519 26.0533 55.9972 25.712C55.4426 25.36 55.0052 24.8587 54.6852 24.208C54.3652 23.5573 54.2052 22.7947 54.2052 21.92C54.2052 21.0453 54.3652 20.2827 54.6852 19.632C55.0052 18.9707 55.4426 18.4693 55.9972 18.128C56.5519 17.776 57.1759 17.6 57.8692 17.6C58.4559 17.6 58.9572 17.7173 59.3732 17.952C59.7892 18.176 60.1252 18.4693 60.3812 18.832H60.7972V25.04H60.3812C60.1252 25.3813 59.7839 25.664 59.3572 25.888C58.9412 26.112 58.4452 26.224 57.8692 26.224ZM58.1252 24.928C58.5946 24.928 58.9999 24.8053 59.3412 24.56C59.6826 24.3147 59.9439 23.968 60.1252 23.52C60.3066 23.0613 60.3972 22.528 60.3972 21.92C60.3972 21.3013 60.3066 20.768 60.1252 20.32C59.9439 19.8613 59.6826 19.5147 59.3412 19.28C58.9999 19.0347 58.5946 18.912 58.1252 18.912C57.6346 18.912 57.2132 19.0453 56.8612 19.312C56.5199 19.5787 56.2639 19.9413 56.0932 20.4C55.9226 20.8587 55.8372 21.3653 55.8372 21.92C55.8372 22.464 55.9226 22.9653 56.0932 23.424C56.2639 23.8827 56.5199 24.2507 56.8612 24.528C57.2132 24.7947 57.6346 24.928 58.1252 24.928ZM60.4132 14.56H61.9812V26H60.4132V14.56ZM71.522 26.224C70.9353 26.224 70.4287 26.112 70.002 25.888C69.586 25.664 69.2553 25.3653 69.01 24.992H68.594V18.8H69.01C69.266 18.4587 69.602 18.176 70.018 17.952C70.4447 17.7173 70.946 17.6 71.522 17.6C72.2153 17.6 72.8393 17.776 73.394 18.128C73.9487 18.4693 74.386 18.9707 74.706 19.632C75.026 20.2827 75.186 21.0453 75.186 21.92C75.186 22.7947 75.026 23.5573 74.706 24.208C74.386 24.8587 73.9487 25.36 73.394 25.712C72.8393 26.0533 72.2153 26.224 71.522 26.224ZM67.41 14.56H68.978V26H67.41V14.56ZM71.266 24.928C71.7567 24.928 72.1727 24.7947 72.514 24.528C72.866 24.2507 73.122 23.8827 73.282 23.424C73.4527 22.9653 73.538 22.464 73.538 21.92C73.538 21.3653 73.4527 20.8587 73.282 20.4C73.122 19.9413 72.866 19.5787 72.514 19.312C72.1727 19.0453 71.7567 18.912 71.266 18.912C70.7967 18.912 70.3913 19.0347 70.05 19.28C69.7087 19.5147 69.4473 19.8613 69.266 20.32C69.0847 20.768 68.994 21.3013 68.994 21.92C68.994 22.528 69.0847 23.0613 69.266 23.52C69.4473 23.968 69.7087 24.3147 70.05 24.56C70.3913 24.8053 70.7967 24.928 71.266 24.928ZM77.5323 28.864C77.2229 28.864 76.8869 28.8267 76.5243 28.752V27.472C76.8016 27.504 77.0256 27.52 77.1963 27.52C77.4416 27.52 77.6656 27.472 77.8683 27.376C78.0816 27.28 78.2789 27.1147 78.4603 26.88C78.6416 26.6453 78.7803 26.3253 78.8763 25.92L75.5803 17.84H77.2923L79.6763 24.08H79.7083L81.9483 17.84H83.5963L80.3643 26.192C80.1083 26.864 79.8416 27.392 79.5643 27.776C79.2976 28.16 78.9989 28.4373 78.6683 28.608C78.3376 28.7787 77.9589 28.864 77.5323 28.864Z" fill="#374151"/>
<path d="M120 40C131.046 40 140 31.0457 140 20C140 8.9543 131.046 0 120 0C108.954 0 100 8.9543 100 20C100 31.0457 108.954 40 120 40Z" fill="url(#paint0_linear_1286_10060)"/>
<path fill-rule="evenodd" clipRule="evenodd" d="M117.247 8.5C116.644 8.5 116.066 8.73933 115.64 9.16533C115.214 9.59134 114.975 10.1691 114.975 10.7716V12.2403C114.975 12.5164 114.751 12.7403 114.475 12.7403H110.638C110.036 12.7403 109.458 12.9796 109.032 13.4056C108.606 13.8316 108.367 14.4094 108.367 15.0119V19.4174C108.367 20.0199 108.606 20.5977 109.032 21.0237C109.218 21.2094 109.432 21.3597 109.665 21.4701C109.867 21.5659 110.019 21.7572 110.019 21.9808V27.6777C110.019 28.4262 110.316 29.1441 110.845 29.6734C111.375 30.2027 112.093 30.5 112.841 30.5H127.159C127.907 30.5 128.625 30.2027 129.155 29.6734C129.684 29.1441 129.981 28.4262 129.981 27.6777V21.9808C129.981 21.7572 130.133 21.5659 130.335 21.4701C130.568 21.3597 130.782 21.2094 130.968 21.0237C131.394 20.5977 131.633 20.0199 131.633 19.4174V15.0119C131.633 14.4094 131.394 13.8316 130.968 13.4056C130.542 12.9796 129.964 12.7403 129.362 12.7403H125.525C125.249 12.7403 125.025 12.5165 125.025 12.2403V10.7716C125.025 10.1691 124.786 9.59134 124.36 9.16533C123.934 8.73933 123.356 8.5 122.753 8.5H117.247ZM122.185 12.7403C122.461 12.7403 122.685 12.5164 122.685 12.2403V11.3404C122.685 11.0643 122.461 10.8404 122.185 10.8404H117.815C117.539 10.8404 117.315 11.0643 117.315 11.3404V12.2403C117.315 12.5165 117.539 12.7403 117.815 12.7403H122.185ZM111.207 15.0807C110.931 15.0807 110.707 15.3046 110.707 15.5807V18.8682C110.707 19.1335 110.922 19.3486 111.187 19.3486V19.3486L111.189 19.3486L111.19 19.3486H128.809L128.811 19.3486L128.813 19.3486V19.3486C129.078 19.3486 129.293 19.1335 129.293 18.8682V15.5807C129.293 15.3046 129.069 15.0807 128.793 15.0807H111.207ZM112.359 27.6777V22.189C112.359 21.9129 112.583 21.689 112.859 21.689H127.141C127.417 21.689 127.641 21.9129 127.641 22.189V27.6777C127.641 27.8055 127.59 27.9281 127.5 28.0184C127.409 28.1088 127.287 28.1596 127.159 28.1596H112.841C112.713 28.1596 112.591 28.1088 112.5 28.0184C112.41 27.9281 112.359 27.8055 112.359 27.6777Z" fill="url(#paint1_linear_1286_10060)"/>
<path d="M160.512 29H155.88L162.408 11.84H166.752L173.328 29H168.6L167.496 25.424H161.616L160.512 29ZM164.544 15.8L162.6 22.136H166.536L164.592 15.8H164.544ZM179.698 29.408C175.81 29.408 173.362 26.696 173.362 22.856C173.362 19.04 175.81 16.304 179.602 16.304C183.154 16.304 185.314 18.416 185.626 21.296H181.762C181.642 20.288 181.21 19.184 179.674 19.184C178.09 19.184 177.298 20.552 177.298 22.856C177.298 25.16 178.066 26.528 179.674 26.528C181.186 26.528 181.642 25.496 181.762 24.368H185.626C185.434 27.296 183.226 29.408 179.698 29.408ZM193.11 29.408C189.222 29.408 186.774 26.696 186.774 22.856C186.774 19.04 189.222 16.304 193.014 16.304C196.566 16.304 198.726 18.416 199.038 21.296H195.174C195.054 20.288 194.622 19.184 193.086 19.184C191.502 19.184 190.71 20.552 190.71 22.856C190.71 25.16 191.478 26.528 193.086 26.528C194.598 26.528 195.054 25.496 195.174 24.368H199.038C198.846 27.296 196.638 29.408 193.11 29.408ZM206.714 29.408C202.658 29.408 200.186 26.768 200.186 22.88C200.186 19.016 202.658 16.304 206.786 16.304C210.842 16.304 213.314 18.944 213.314 22.808C213.314 26.696 210.842 29.408 206.714 29.408ZM206.762 26.528C208.466 26.528 209.426 25.232 209.426 22.856C209.426 20.48 208.466 19.184 206.762 19.184C205.034 19.184 204.074 20.48 204.074 22.856C204.074 25.232 205.034 26.528 206.762 26.528ZM223.125 23.816V16.712H226.965V29H223.125V27.224H223.077C222.429 28.352 221.229 29.384 219.045 29.384C216.669 29.384 215.061 27.824 215.061 25.016V16.712H218.901V23.792C218.901 25.64 219.549 26.264 220.821 26.264C222.285 26.264 223.125 25.52 223.125 23.816ZM237.238 16.328C239.614 16.328 241.222 17.888 241.222 20.696V29H237.382V21.92C237.382 20.072 236.734 19.448 235.462 19.448C233.998 19.448 233.158 20.192 233.158 21.896V29H229.318V16.712H233.158V18.488H233.206C233.854 17.36 235.054 16.328 237.238 16.328ZM249.459 26.36C249.819 26.36 250.035 26.336 250.491 26.264V28.976C249.675 29.168 248.979 29.24 248.211 29.24C245.523 29.24 244.371 28.016 244.371 25.016V19.592H242.667V16.712H244.371V13.28H248.211V16.712H250.347V19.592H248.211V24.92C248.211 26.24 248.715 26.36 249.459 26.36ZM273.163 29H268.123L263.683 22.304L261.907 24.368V29H257.587V11.84H261.907V19.16L268.051 11.84H272.683L266.227 19.352L273.163 29ZM277.853 15.248H274.013V11.84H277.853V15.248ZM277.853 29H274.013V16.712H277.853V29ZM286.278 26.36C286.638 26.36 286.854 26.336 287.31 26.264V28.976C286.494 29.168 285.798 29.24 285.03 29.24C282.342 29.24 281.19 28.016 281.19 25.016V19.592H279.486V16.712H281.19V13.28H285.03V16.712H287.166V19.592H285.03V24.92C285.03 26.24 285.534 26.36 286.278 26.36Z" fill="black"/>
<defs>
<linearGradient id="paint0_linear_1286_10060" x1="100" y1="0" x2="141.915" y2="37.8813" gradientUnits="userSpaceOnUse">
<stop stop-color="#FF9C27"/>
<stop offset="1" stop-color="#FD48CE"/>
</linearGradient>
<linearGradient id="paint1_linear_1286_10060" x1="120" y1="8.5" x2="120" y2="30.5" gradientUnits="userSpaceOnUse">
<stop offset="0.166667" stop-color="white"/>
<stop offset="1" stop-color="white" stopOpacity="0.5"/>
</linearGradient>
</defs>
</svg>
